# xmcd
#
# Track frame offsets:
#   150
#   14349
#   31503
#   52069
#   70513
#
# Disc length: 1169 seconds
#
# Revision: 0
# Processed by: cddbd v1.5.2PL0 Copyright (c) Steve Scherf et al.
# Submitted via: GXTranscoder 2.0.1939
#
DISCID=33048f05
DTITLE=Call'n Response - 5 track album
DYEAR=1900
DGENRE=R and B
TTITLE0=Take me to the river
TTITLE1=Ain't no love in the heart of the city
TTITLE2=Feels like rain
TTITLE3=Chain of fools
TTITLE4=Whenever god shines his light on me
EXTD=
EXTT0=
EXTT1=
EXTT2=
EXTT3=
EXTT4=
PLAYORDER=
